<svg xmlns="http://www.w3.org/2000/svg" version="1.1" xmlns:xlink="http://www.w3.org/1999/xlink" width="512" height="512" x="0" y="0" viewBox="0 0 48 48" style="enable-background:new 0 0 512 512" xml:space="preserve"><g><g data-name="Mosquito Virus"><path d="M44.47 26.94a4.06 4.06 0 0 0 2.41-6.83c-1.5-1.56-1.42-1.19-17.88-2.06 0-.66-.94.07 6.5-4.18.7-.4.5-.45.5-9.37l3.6-2.7A1 1 0 0 0 38.4.2l-4 3c-.57.42-.4.31-.4 9.22l-5.28 3a4.68 4.68 0 0 0-.63-1.29 3 3 0 0 0-3.09-5V1a1 1 0 0 0-2 0v8.18a3 3 0 0 0-3.09 5 4.68 4.68 0 0 0-.63 1.29l-5.28-3c0-8.95.16-8.8-.4-9.22l-4-3A1 1 0 0 0 8.4 1.8L12 4.5c0 8.79-.22 9 .5 9.37 7.43 4.24 6.5 3.52 6.5 4.18l-15.14.8A4.08 4.08 0 0 0 4.08 27c12.48 0 10.39.71 15-3a4.91 4.91 0 0 0 .7 1.68l-9.42 7.54c-.43.34-.3.2-1.3 6.24l-4.7 3.76a1 1 0 0 0 1.24 1.56l5-4c.43-.34.3-.2 1.3-6.24l5.82-4.65-3.62 6.63c-.17.31-.12 0-.12 6.07l-3.71 3.7a1 1 0 0 0 1.42 1.42C16 43.47 16 43.57 16 43v-5.75l4.19-7.68c0 .56-.11-1.14.7 13.49a3.11 3.11 0 0 0 6.22 0l.16-2.94a11 11 0 1 0 17.2-13.18ZM44 20.85a2.08 2.08 0 0 1-.08 4.15h-2.36a10.85 10.85 0 0 0-8.41-.29c-.52-.23-.29-.1-4.15-3.19v-1.47ZM21 23v-6a3 3 0 0 1 6 0v6a3 3 0 0 1-6 0Zm1.34 10h3.33l-.12 2h-3.1Zm3-4.42c.71.74.49 1.57.45 2.42h-3.57v-1.06a1.83 1.83 0 0 1 3.11-1.36ZM22.56 37h2.88l-.11 2h-2.66Zm4.19-9.83A5 5 0 0 0 28.9 24l2.18 1.74a10.94 10.94 0 0 0-3.33 3.34 3.81 3.81 0 0 0-1-1.91ZM26 11a1 1 0 0 1 .63 1.76C25.28 11.92 25 12.29 25 12a1 1 0 0 1 1-1Zm-4 0a1 1 0 0 1 1 1.1 5 5 0 0 0-1.62.66A1 1 0 0 1 22 11Zm-6.53 13.34c-1.08.87-1 .66-11.39.66A2.08 2.08 0 0 1 4 20.85l15-.8v1.47ZM22.89 43l-.11-2h2.44l-.11 2a1.11 1.11 0 0 1-2.22 0ZM37 44a9 9 0 1 1 9-9 9 9 0 0 1-9 9Z" fill="#565656" opacity="1" data-original="#000000"></path><path d="M41.9 34c-.47-2.32-1.35-1.13.05-2.53a1 1 0 0 0-1.42-1.42c-1.42 1.42-.15.54-2.53.05V29a1 1 0 0 0-2 0v1.1c-2.32.47-1.13 1.35-2.53-.05a1 1 0 0 0-1.42 1.42c1.42 1.42.54.15.05 2.53H31a1 1 0 0 0 0 2h1.1c.47 2.32 1.35 1.13-.05 2.53a1 1 0 0 0 .71 1.71c.49 0 .62-.21 1.49-1.07C36.18 40.45 36 39.08 36 41a1 1 0 0 0 2 0c0-2-.26-.5 1.75-1.83.73.73 1 1.07 1.49 1.07a1 1 0 0 0 .76-1.71c-1.42-1.42-.54-.15-.05-2.53H43a1 1 0 0 0 0-2ZM37 38a3 3 0 1 1 3-3 3 3 0 0 1-3 3Z" fill="#565656" opacity="1" data-original="#000000"></path><path d="M36 33a1 1 0 0 0 0 2 1 1 0 0 0 0-2ZM38 35a1 1 0 0 0 0 2 1 1 0 0 0 0-2Z" fill="#565656" opacity="1" data-original="#000000"></path></g></g></svg>