<svg xmlns="http://www.w3.org/2000/svg" version="1.1" xmlns:xlink="http://www.w3.org/1999/xlink" width="512" height="512" x="0" y="0" viewBox="0 0 480 480" style="enable-background:new 0 0 512 512" xml:space="preserve"><g><path d="M432 16h-72c-39.746.043-71.957 32.254-72 72v40h-16v48h15.527c-4.105 36.414-34.882 63.95-71.527 64h-16c-36.645-.05-67.422-27.586-71.527-64H144v-48h-16V48h16V0H0v48h16v80H0v48h16.2c3.155 70.797 46.62 133.516 111.8 161.328 17.512 17.047 29.312 32.04 32.39 41.2 2.731 8.19-1.245 19.097-5.453 30.648-5.921 16.281-12.64 34.719-1.601 51.265a35.577 35.577 0 0 0 29.945 18.336 39.11 39.11 0 0 0 31.375-18.343c6.84-10.29 4.399-23.883 1.602-39.61-4.457-24.8-8.985-50.398 18.094-69.746 4.695-.46 9.328-1.148 13.921-1.965 11.063 4.856 16.422 10.95 15.782 18.153a24.286 24.286 0 0 0 9.953 23.414 23.344 23.344 0 0 0 12.855 3.761c4.145 0 8.223-1.023 11.871-2.976A25.602 25.602 0 0 0 312 368c0-3.688-.176-7.2-.367-10.617a64.896 64.896 0 0 1 6.047-36.125A184.014 184.014 0 0 0 399.8 176H416v-48h-16v-8a8 8 0 0 1 8-8h24v16h48V0h-48zM16 16h112v16H16zm16 32h80v80H32zm-16 96h112v16H16zm184.488 279.656c2.121 11.824 4.13 22.985.856 27.903a23.36 23.36 0 0 1-18.055 11.203 20.804 20.804 0 0 1-16.633-11.203c-6.527-9.79-1.734-22.965 3.336-36.91 4.961-13.602 10.086-27.704 5.602-41.184a90.252 90.252 0 0 0-16.305-26.067A183.748 183.748 0 0 0 200 352h10.063c-18.293 23.121-13.375 50.543-9.575 71.656zm95.2-65.426c.175 3.16.343 6.403.343 9.77a9.738 9.738 0 0 1-4.855 9.367 8.33 8.33 0 0 1-8.32 0 9.004 9.004 0 0 1-2.856-8.656A29.367 29.367 0 0 0 269.793 344a182.707 182.707 0 0 0 26.96-10.672 93.835 93.835 0 0 0-1.097 24.902zM216 336h-16c-3.64 0-7.2-.305-10.793-.527l-11.047-27.61 41.414-20.664-7.148-14.32L168 295.055 139.574 280.8l-7.148 14.32 29.277 14.64 9.426 23.567C93.762 319.754 36.089 254.45 32.184 176h80.175c4.192 45.29 42.16 79.945 87.641 80h16c45.48-.055 83.45-34.71 87.64-80h80.176C379.438 265.523 305.633 335.895 216 336zm184-176H288v-16h112zm8-64c-13.254 0-24 10.746-24 24v8h-80V88c.04-30.91 25.09-55.96 56-56h72v64zm56-80v96h-16V16zm0 0" fill="#565656" opacity="1" data-original="#000000"></path><path d="M320 88v16h16V88c0-13.254 10.746-24 24-24h16V48h-16c-22.082.027-39.973 17.918-40 40zM80 64h16v48H80zM80 192h16v16H80zM392 48h16v16h-16zm0 0" fill="#565656" opacity="1" data-original="#000000"></path></g></svg>