<svg xmlns="http://www.w3.org/2000/svg" version="1.1" xmlns:xlink="http://www.w3.org/1999/xlink" width="512" height="512" x="0" y="0" viewBox="0 0 64 64" style="enable-background:new 0 0 512 512" xml:space="preserve" class=""><g><path d="M61 10V8a1 1 0 1 0-2 0v2h-2V8a1 1 0 1 0-2 0v2h-2V3c0-1.654-1.346-3-3-3s-3 1.346-3 3v7h-2V8a1 1 0 1 0-2 0v2h-2V8a1 1 0 1 0-2 0v2c-1.654 0-3 1.346-3 3 0 1.267.791 2.346 1.903 2.785-1.173 1.123-3.145 2.714-5.903 4.012-2.758-1.298-4.73-2.889-5.903-4.012A2.997 2.997 0 0 0 28 13c0-1.654-1.346-3-3-3V8a1 1 0 1 0-2 0v2h-2V8a1 1 0 1 0-2 0v2h-2V3c0-1.654-1.346-3-3-3s-3 1.346-3 3v7H9V8a1 1 0 1 0-2 0v2H5V8a1 1 0 1 0-2 0v2c-1.654 0-3 1.346-3 3s1.346 3 3 3h.525c.839.989 3.32 3.596 7.475 5.573V63a1 1 0 0 0 1 1h4a1 1 0 0 0 1-1V23.52a26.5 26.5 0 0 0 5 .48c3.971 0 7.296-.836 10-1.977C34.704 23.164 38.029 24 42 24c1.695 0 3.37-.166 5-.479V63a1 1 0 0 0 1 1h4a1 1 0 0 0 1-1V21.545c4.142-1.978 6.628-4.564 7.472-5.545H61c1.654 0 3-1.346 3-3s-1.346-3-3-3zM49 3a1.001 1.001 0 0 1 2 0v7h-2zM13 3a1.001 1.001 0 0 1 2 0v7h-2zM2 13c0-.552.449-1 1-1h22a1.001 1.001 0 0 1 0 2H3c-.551 0-1-.448-1-1zm13 7.955a23.03 23.03 0 0 1-2-.705V16h2zM6.325 16H11v3.296A22.435 22.435 0 0 1 6.325 16zM15 62h-2V22.41c.636.235 1.302.451 2 .645zm7-40c-1.813 0-3.47-.208-5-.532V16h6.525c.734.865 2.719 2.965 5.983 4.804C27.358 21.521 24.855 22 22 22zm20 0c-2.855 0-5.358-.479-7.509-1.196 3.264-1.839 5.25-3.938 5.983-4.804H47v5.477c-1.624.34-3.3.523-5 .523zm7 40V16h2v46zm4-42.693V16h4.678A22.451 22.451 0 0 1 53 19.307zM61 14H39a1.001 1.001 0 0 1 0-2h22a1.001 1.001 0 0 1 0 2z" fill="#565656" opacity="1" data-original="#000000" class=""></path></g></svg>