<svg xmlns="http://www.w3.org/2000/svg" version="1.1" xmlns:xlink="http://www.w3.org/1999/xlink" width="512" height="512" x="0" y="0" viewBox="0 0 128 128" style="enable-background:new 0 0 512 512" xml:space="preserve" class=""><g><path d="M116 5.25H91.4A4.756 4.756 0 0 0 86.651 10v.022H79a16.69 16.69 0 0 0-9.741 3.146v-2.659a5.259 5.259 0 0 0-10.518 0v2.659A16.7 16.7 0 0 0 49 10.022h-7.651V10A4.756 4.756 0 0 0 36.6 5.25H12A6.758 6.758 0 0 0 5.25 12v4.543A1.749 1.749 0 0 0 7 18.293h2.561l.681 2.352a5.781 5.781 0 0 0 5.524 4.149h15.067a5.777 5.777 0 0 0 5.522-4.149l.682-2.352H39.6a1.75 1.75 0 0 0 1.75-1.75v-3.021H49a13.207 13.207 0 0 1 9.741 4.3v77.785h-.213a1.75 1.75 0 0 0-1.748 1.672l-.98 21.971H45.222a1.75 1.75 0 0 0 0 3.5h37.556a1.75 1.75 0 1 0 0-3.5H72.2l-.98-21.971a1.75 1.75 0 0 0-1.748-1.672h-.213V17.818A13.209 13.209 0 0 1 79 13.522h7.651v3.021a1.75 1.75 0 0 0 1.75 1.75h2.562l.681 2.351a5.779 5.779 0 0 0 5.523 4.15h15.067a5.781 5.781 0 0 0 5.524-4.149l.681-2.352H121a1.749 1.749 0 0 0 1.75-1.75V12A6.758 6.758 0 0 0 116 5.25ZM32.994 19.671a2.262 2.262 0 0 1-2.161 1.623H15.766A2.264 2.264 0 0 1 13.6 19.67l-.4-1.377h20.194Zm4.855-4.878H8.75V12A3.254 3.254 0 0 1 12 8.75h24.6A1.251 1.251 0 0 1 37.849 10ZM59.3 119.25l.9-20.143h7.6l.9 20.143Zm2.941-23.643v-85.1a1.759 1.759 0 0 1 3.518 0v85.1ZM114.4 19.67a2.263 2.263 0 0 1-2.162 1.624H97.167a2.261 2.261 0 0 1-2.161-1.624l-.4-1.377H114.8Zm4.854-4.877h-29.1V10A1.251 1.251 0 0 1 91.4 8.75H116a3.254 3.254 0 0 1 3.25 3.25Z" fill="#565656" opacity="1" data-original="#000000" class=""></path></g></svg>