<svg xmlns="http://www.w3.org/2000/svg" version="1.1" xmlns:xlink="http://www.w3.org/1999/xlink" width="512" height="512" x="0" y="0" viewBox="0 0 512 512.001" style="enable-background:new 0 0 512 512" xml:space="preserve"><g><path d="M106.922 283.016c2.633 0 5.21-1.07 7.07-2.93 1.86-1.86 2.93-4.441 2.93-7.07s-1.07-5.211-2.93-7.07a10.073 10.073 0 0 0-7.07-2.93c-2.64 0-5.211 1.07-7.07 2.93a10.01 10.01 0 0 0-2.93 7.07 10.03 10.03 0 0 0 2.93 7.07c1.859 1.86 4.43 2.93 7.07 2.93zm0 0" fill="#565656" opacity="1" data-original="#000000"></path><path d="M204.14 109.473c-2.199-2.2-5.296-3.25-8.378-2.844a9.99 9.99 0 0 0-7.356 4.922l-70.152 121.761c-2.758 4.786-1.113 10.899 3.672 13.657 4.785 2.758 10.898 1.11 13.656-3.672l34.172-59.313 155.898 155.899L130.844 452.12l-73.328-73.328 37.773-65.559c2.758-4.785 1.113-10.902-3.672-13.66-4.789-2.758-10.902-1.11-13.66 3.676L37.02 374.305l-16.657 16.66C7.23 404.094 0 421.55 0 440.12c0 18.566 7.23 36.024 20.363 49.156 13.551 13.551 31.352 20.328 49.153 20.328 17.804 0 35.605-6.777 49.156-20.328l10.52-10.52 17.253 17.25C157.105 506.673 171.113 512 185.117 512c14.008 0 28.012-5.328 38.676-15.992 20.691-20.692 21.305-53.977 1.84-75.418l172.453-99.356a10.015 10.015 0 0 0 4.922-7.355 10.006 10.006 0 0 0-2.844-8.383zM34.505 475.133C25.152 465.777 20 453.343 20 440.117c0-13.226 5.152-25.66 14.504-35.012l10.52-10.52 70.027 70.028-10.52 10.52c-19.304 19.308-50.722 19.308-70.027 0zM209.652 432.8c13.528 13.527 13.528 35.535 0 49.062-13.527 13.528-35.539 13.532-49.066 0l-15.098-15.097 62.258-35.868zm133.934-103.25c-.074-.078-.137-.156-.211-.235L180.098 166.04l19.125-33.2 177.574 177.575zM253.398 113.98c.891.247 1.786.364 2.665.364 4.386 0 8.414-2.91 9.632-7.344l12.285-44.555 8.528 8.528a10.002 10.002 0 0 0 16.594-4.016l17.3-53.898C322.09 7.8 319.195 2.168 313.938.48s-10.891 1.207-12.579 6.465l-12.293 38.301-9.09-9.09a9.998 9.998 0 0 0-16.71 4.414l-16.852 61.11c-1.465 5.328 1.66 10.836 6.984 12.3zM510.707 164.05c-2.66-4.84-8.738-6.605-13.578-3.948l-71.125 39.066a9.989 9.989 0 0 0-5.082 7.355 9.987 9.987 0 0 0 2.828 8.48l19.566 19.567-46.976 11.743c-5.36 1.34-8.617 6.769-7.277 12.128 1.136 4.543 5.214 7.575 9.695 7.575.8 0 1.62-.098 2.433-.301l64.11-16.027a9.999 9.999 0 0 0 4.645-16.77l-22.634-22.633 59.446-32.652a10.002 10.002 0 0 0 3.949-13.582zM460.871 111.406a10.027 10.027 0 0 0 7.07 2.934 10.04 10.04 0 0 0 7.07-2.934c1.86-1.86 2.93-4.43 2.93-7.066 0-2.633-1.07-5.211-2.93-7.07a10.074 10.074 0 0 0-7.07-2.934 10.06 10.06 0 0 0-7.07 2.934 10.06 10.06 0 0 0-2.933 7.07c0 2.637 1.07 5.207 2.933 7.066zM440.414 117.93c-2.445-4.953-8.441-6.985-13.394-4.54l-37.332 18.426a10.004 10.004 0 0 0-2.645 16.04l14.125 14.124-47.031 23.168c-4.953 2.442-6.992 8.438-4.551 13.391a9.999 9.999 0 0 0 13.39 4.555l59.555-29.34a10.007 10.007 0 0 0 5.45-7.34 10.007 10.007 0 0 0-2.797-8.703l-14.133-14.133 24.82-12.254c4.953-2.445 6.984-8.441 4.543-13.394zM315.25 145.586a9.993 9.993 0 0 0 13.719-3.43l37.027-61.695 19.43 19.48a9.998 9.998 0 0 0 15.395-1.5l55.429-82.879c3.07-4.59 1.84-10.8-2.75-13.87-4.594-3.067-10.805-1.837-13.875 2.753l-48.648 72.739-19.872-19.93a9.987 9.987 0 0 0-8.296-2.863 9.997 9.997 0 0 0-7.36 4.78l-43.629 72.692a9.999 9.999 0 0 0 3.43 13.723zm0 0" fill="#565656" opacity="1" data-original="#000000"></path></g></svg>